%TF.GenerationSoftware,Altium Limited,Altium Designer,18.1.7 (191)*%
G04 Layer_Color=16711935*
%FSLAX25Y25*%
%MOIN*%
%TF.FileFunction,Keep-out,Top*%
%TF.Part,Single*%
G01*
G75*
G36*
X41093Y182844D02*
X42167Y182399D01*
X43135Y181753D01*
X43957Y180930D01*
X44603Y179963D01*
X45049Y178888D01*
X45276Y177747D01*
Y177747D01*
D01*
Y177165D01*
Y176584D01*
X45049Y175443D01*
X44603Y174368D01*
X43957Y173401D01*
X43135Y172578D01*
X42167Y171932D01*
X41093Y171487D01*
X39952Y171260D01*
X38788D01*
X37648Y171487D01*
X36573Y171932D01*
X35605Y172578D01*
X34783Y173401D01*
X34137Y174368D01*
X33691Y175443D01*
X33465Y176584D01*
Y176584D01*
Y177165D01*
Y177747D01*
D01*
Y177747D01*
X33691Y178888D01*
X34137Y179963D01*
X34783Y180930D01*
X35605Y181753D01*
X36573Y182399D01*
X37648Y182844D01*
X38788Y183071D01*
X39952D01*
X41093Y182844D01*
D02*
G37*
G36*
X541093Y115915D02*
X542167Y115470D01*
X543135Y114823D01*
X543957Y114001D01*
X544603Y113033D01*
X545049Y111959D01*
X545276Y110818D01*
Y110818D01*
D01*
Y110236D01*
Y109655D01*
X545049Y108514D01*
X544603Y107439D01*
X543957Y106472D01*
X543135Y105649D01*
X542167Y105003D01*
X541093Y104558D01*
X539952Y104331D01*
X538788D01*
X537647Y104558D01*
X536573Y105003D01*
X535605Y105649D01*
X534783Y106472D01*
X534137Y107439D01*
X533692Y108514D01*
X533465Y109655D01*
Y109655D01*
Y110236D01*
Y110818D01*
D01*
Y110818D01*
X533692Y111959D01*
X534137Y113033D01*
X534783Y114001D01*
X535605Y114823D01*
X536573Y115470D01*
X537647Y115915D01*
X538788Y116142D01*
X539952D01*
X541093Y115915D01*
D02*
G37*
%TF.MD5,6787e9b477a1eb76232afc0d1e8936b8*%
M02*
