%TF.GenerationSoftware,Altium Limited,Altium Designer,18.1.7 (191)*%
G04 Layer_Color=16711935*
%FSLAX25Y25*%
%MOIN*%
%TF.FileFunction,Soldermask,Bot*%
%TF.Part,Single*%
G01*
G75*
%TA.AperFunction,NonConductor*%
%ADD81R,0.06299X0.17717*%
%TA.AperFunction,SMDPad,CuDef*%
%ADD82R,0.05721X0.06509*%
%ADD83R,0.04147X0.03556*%
%ADD84R,0.09658X0.14580*%
G04:AMPARAMS|DCode=85|XSize=145.8mil|YSize=76.9mil|CornerRadius=12.61mil|HoleSize=0mil|Usage=FLASHONLY|Rotation=180.000|XOffset=0mil|YOffset=0mil|HoleType=Round|Shape=RoundedRectangle|*
%AMROUNDEDRECTD85*
21,1,0.14580,0.05167,0,0,180.0*
21,1,0.12057,0.07690,0,0,180.0*
1,1,0.02522,-0.06029,0.02584*
1,1,0.02522,0.06029,0.02584*
1,1,0.02522,0.06029,-0.02584*
1,1,0.02522,-0.06029,-0.02584*
%
%ADD85ROUNDEDRECTD85*%
G04:AMPARAMS|DCode=86|XSize=51.31mil|YSize=76.9mil|CornerRadius=9.41mil|HoleSize=0mil|Usage=FLASHONLY|Rotation=180.000|XOffset=0mil|YOffset=0mil|HoleType=Round|Shape=RoundedRectangle|*
%AMROUNDEDRECTD86*
21,1,0.05131,0.05807,0,0,180.0*
21,1,0.03248,0.07690,0,0,180.0*
1,1,0.01883,-0.01624,0.02904*
1,1,0.01883,0.01624,0.02904*
1,1,0.01883,0.01624,-0.02904*
1,1,0.01883,-0.01624,-0.02904*
%
%ADD86ROUNDEDRECTD86*%
G04:AMPARAMS|DCode=87|XSize=51.31mil|YSize=76.9mil|CornerRadius=9.41mil|HoleSize=0mil|Usage=FLASHONLY|Rotation=180.000|XOffset=0mil|YOffset=0mil|HoleType=Round|Shape=RoundedRectangle|*
%AMROUNDEDRECTD87*
21,1,0.05131,0.05807,0,0,180.0*
21,1,0.03248,0.07690,0,0,180.0*
1,1,0.01883,-0.01624,0.02904*
1,1,0.01883,0.01624,0.02904*
1,1,0.01883,0.01624,-0.02904*
1,1,0.01883,-0.01624,-0.02904*
%
%ADD87ROUNDEDRECTD87*%
%ADD88R,0.06509X0.05721*%
%TA.AperFunction,FiducialPad,Global*%
%ADD89C,0.07874*%
%TA.AperFunction,SMDPad,CuDef*%
%ADD90R,0.03556X0.04147*%
G04:AMPARAMS|DCode=91|XSize=31.62mil|YSize=47.37mil|CornerRadius=6.95mil|HoleSize=0mil|Usage=FLASHONLY|Rotation=0.000|XOffset=0mil|YOffset=0mil|HoleType=Round|Shape=RoundedRectangle|*
%AMROUNDEDRECTD91*
21,1,0.03162,0.03347,0,0,0.0*
21,1,0.01772,0.04737,0,0,0.0*
1,1,0.01391,0.00886,-0.01673*
1,1,0.01391,-0.00886,-0.01673*
1,1,0.01391,-0.00886,0.01673*
1,1,0.01391,0.00886,0.01673*
%
%ADD91ROUNDEDRECTD91*%
%ADD92R,0.03950X0.03359*%
G04:AMPARAMS|DCode=93|XSize=47.37mil|YSize=43.43mil|CornerRadius=8.43mil|HoleSize=0mil|Usage=FLASHONLY|Rotation=90.000|XOffset=0mil|YOffset=0mil|HoleType=Round|Shape=RoundedRectangle|*
%AMROUNDEDRECTD93*
21,1,0.04737,0.02657,0,0,90.0*
21,1,0.03051,0.04343,0,0,90.0*
1,1,0.01686,0.01329,0.01526*
1,1,0.01686,0.01329,-0.01526*
1,1,0.01686,-0.01329,-0.01526*
1,1,0.01686,-0.01329,0.01526*
%
%ADD93ROUNDEDRECTD93*%
G04:AMPARAMS|DCode=94|XSize=47.37mil|YSize=43.43mil|CornerRadius=8.43mil|HoleSize=0mil|Usage=FLASHONLY|Rotation=180.000|XOffset=0mil|YOffset=0mil|HoleType=Round|Shape=RoundedRectangle|*
%AMROUNDEDRECTD94*
21,1,0.04737,0.02657,0,0,180.0*
21,1,0.03051,0.04343,0,0,180.0*
1,1,0.01686,-0.01526,0.01329*
1,1,0.01686,0.01526,0.01329*
1,1,0.01686,0.01526,-0.01329*
1,1,0.01686,-0.01526,-0.01329*
%
%ADD94ROUNDEDRECTD94*%
G04:AMPARAMS|DCode=95|XSize=86.74mil|YSize=169.42mil|CornerRadius=13.84mil|HoleSize=0mil|Usage=FLASHONLY|Rotation=180.000|XOffset=0mil|YOffset=0mil|HoleType=Round|Shape=RoundedRectangle|*
%AMROUNDEDRECTD95*
21,1,0.08674,0.14173,0,0,180.0*
21,1,0.05906,0.16942,0,0,180.0*
1,1,0.02769,-0.02953,0.07087*
1,1,0.02769,0.02953,0.07087*
1,1,0.02769,0.02953,-0.07087*
1,1,0.02769,-0.02953,-0.07087*
%
%ADD95ROUNDEDRECTD95*%
%ADD96R,0.14383X0.07887*%
%ADD97R,0.07493X0.04737*%
%ADD98R,0.06312X0.04737*%
%ADD99O,0.06509X0.03162*%
%ADD100R,0.08595X0.25288*%
%ADD101R,0.07690X0.02375*%
G04:AMPARAMS|DCode=102|XSize=59.18mil|YSize=94.61mil|CornerRadius=16.8mil|HoleSize=0mil|Usage=FLASHONLY|Rotation=90.000|XOffset=0mil|YOffset=0mil|HoleType=Round|Shape=RoundedRectangle|*
%AMROUNDEDRECTD102*
21,1,0.05918,0.06102,0,0,90.0*
21,1,0.02559,0.09461,0,0,90.0*
1,1,0.03359,0.03051,0.01280*
1,1,0.03359,0.03051,-0.01280*
1,1,0.03359,-0.03051,-0.01280*
1,1,0.03359,-0.03051,0.01280*
%
%ADD102ROUNDEDRECTD102*%
%ADD103R,0.10642X0.06410*%
%ADD104R,0.06548X0.07099*%
%ADD105R,0.03556X0.07985*%
%ADD106C,0.05800*%
%TA.AperFunction,ComponentPad*%
%ADD107C,0.30328*%
%ADD108C,0.12611*%
G04:AMPARAMS|DCode=109|XSize=59.18mil|YSize=94.61mil|CornerRadius=16.8mil|HoleSize=0mil|Usage=FLASHONLY|Rotation=90.000|XOffset=0mil|YOffset=0mil|HoleType=Round|Shape=RoundedRectangle|*
%AMROUNDEDRECTD109*
21,1,0.05918,0.06102,0,0,90.0*
21,1,0.02559,0.09461,0,0,90.0*
1,1,0.03359,0.03051,0.01280*
1,1,0.03359,0.03051,-0.01280*
1,1,0.03359,-0.03051,-0.01280*
1,1,0.03359,-0.03051,0.01280*
%
%ADD109ROUNDEDRECTD109*%
G04:AMPARAMS|DCode=110|XSize=49.34mil|YSize=65.48mil|CornerRadius=14.34mil|HoleSize=0mil|Usage=FLASHONLY|Rotation=90.000|XOffset=0mil|YOffset=0mil|HoleType=Round|Shape=RoundedRectangle|*
%AMROUNDEDRECTD110*
21,1,0.04934,0.03681,0,0,90.0*
21,1,0.02067,0.06548,0,0,90.0*
1,1,0.02867,0.01841,0.01034*
1,1,0.02867,0.01841,-0.01034*
1,1,0.02867,-0.01841,-0.01034*
1,1,0.02867,-0.01841,0.01034*
%
%ADD110ROUNDEDRECTD110*%
%ADD111C,0.06706*%
%ADD112R,0.06706X0.06706*%
%ADD113C,0.10249*%
%TA.AperFunction,ViaPad*%
%ADD114C,0.03556*%
%ADD115C,0.03950*%
G36*
X93307Y55118D02*
X93307Y47638D01*
X95276Y45669D01*
X106299Y45669D01*
Y57087D01*
X98425D01*
X95276Y57086D01*
X93307Y55118D01*
D02*
G37*
G36*
X160236D02*
X160236Y47638D01*
X162205Y45669D01*
X173228Y45669D01*
Y57087D01*
X165354D01*
X162205Y57086D01*
X160236Y55118D01*
D02*
G37*
G36*
X227165Y55118D02*
X227165Y47638D01*
X229134Y45669D01*
X240157Y45669D01*
Y57086D01*
X232283D01*
X229134Y57086D01*
X227165Y55118D01*
D02*
G37*
G36*
X334252Y55118D02*
X334252Y47638D01*
X336221Y45669D01*
X347244Y45669D01*
Y57086D01*
X339370D01*
X336221Y57086D01*
X334252Y55118D01*
D02*
G37*
G36*
X402362Y55118D02*
X402362Y47638D01*
X404331Y45669D01*
X415354Y45669D01*
Y57087D01*
X407480D01*
X404331Y57086D01*
X402362Y55118D01*
D02*
G37*
G36*
X469291D02*
X469291Y47638D01*
X471260Y45669D01*
X482283Y45669D01*
Y57087D01*
X474409D01*
X471260Y57086D01*
X469291Y55118D01*
D02*
G37*
G36*
X536221Y55118D02*
X536220Y47638D01*
X538189Y45669D01*
X549213Y45669D01*
Y57086D01*
X541338D01*
X538189Y57086D01*
X536221Y55118D01*
D02*
G37*
D81*
X548032Y87598D02*
D03*
Y60039D02*
D03*
D82*
X547441Y122835D02*
D03*
X540748D02*
D03*
D83*
X255512Y152165D02*
D03*
Y147047D02*
D03*
X260630Y152165D02*
D03*
Y147047D02*
D03*
X287008Y165551D02*
D03*
Y160433D02*
D03*
X292520Y165551D02*
D03*
Y160433D02*
D03*
X298819Y154921D02*
D03*
Y149803D02*
D03*
X287008Y154921D02*
D03*
Y149803D02*
D03*
X281496Y160433D02*
D03*
Y165551D02*
D03*
X298819D02*
D03*
Y160433D02*
D03*
X281496Y149803D02*
D03*
Y154921D02*
D03*
X292520Y149803D02*
D03*
Y154921D02*
D03*
X304331Y155315D02*
D03*
Y160433D02*
D03*
X272047Y153347D02*
D03*
Y148228D02*
D03*
X440158Y140748D02*
D03*
Y145866D02*
D03*
X430709Y157283D02*
D03*
Y152165D02*
D03*
X427165Y129331D02*
D03*
Y134449D02*
D03*
X250394Y152165D02*
D03*
Y147047D02*
D03*
X101969Y129331D02*
D03*
Y134449D02*
D03*
X266535Y153347D02*
D03*
Y148228D02*
D03*
X242126Y105709D02*
D03*
Y110827D02*
D03*
D84*
X520571Y135827D02*
D03*
X539272D02*
D03*
D85*
X516535Y175984D02*
D03*
D86*
X507480Y150000D02*
D03*
X516535D02*
D03*
D87*
X525591D02*
D03*
D88*
X490158Y188386D02*
D03*
Y181693D02*
D03*
X38976Y80118D02*
D03*
Y73425D02*
D03*
X498031Y78149D02*
D03*
Y71457D02*
D03*
X348031Y80118D02*
D03*
Y73425D02*
D03*
X350787Y114764D02*
D03*
Y121457D02*
D03*
X190945Y78149D02*
D03*
Y71457D02*
D03*
X326772Y145866D02*
D03*
Y139173D02*
D03*
D89*
X539370Y110236D02*
D03*
X39370Y177165D02*
D03*
D90*
X330118Y124803D02*
D03*
X325000D02*
D03*
X266732Y158661D02*
D03*
X271850D02*
D03*
X478937Y151575D02*
D03*
X473819D02*
D03*
X478937Y137795D02*
D03*
X473819D02*
D03*
X478937Y145669D02*
D03*
X473819D02*
D03*
X471850Y126772D02*
D03*
X476968D02*
D03*
X460827D02*
D03*
X465945D02*
D03*
X453740Y116142D02*
D03*
X458858D02*
D03*
X459252Y157087D02*
D03*
X454134D02*
D03*
X445079Y127559D02*
D03*
X450197D02*
D03*
X429724Y163386D02*
D03*
X434842D02*
D03*
X439567Y127559D02*
D03*
X434449D02*
D03*
X143504Y115354D02*
D03*
X148622D02*
D03*
X129331Y116142D02*
D03*
X134449D02*
D03*
X138779Y151181D02*
D03*
X143898D02*
D03*
X134843Y161811D02*
D03*
X129724D02*
D03*
X121850Y127953D02*
D03*
X126969D02*
D03*
X108071Y163386D02*
D03*
X113189D02*
D03*
X115157Y127953D02*
D03*
X110039D02*
D03*
X102953Y150394D02*
D03*
X108071D02*
D03*
D91*
X335630Y113779D02*
D03*
X343110Y124016D02*
D03*
X339370D02*
D03*
X335630D02*
D03*
X343110Y113779D02*
D03*
D92*
X204724Y143012D02*
D03*
Y138091D02*
D03*
D93*
X389173Y163779D02*
D03*
X382480D02*
D03*
X389173Y157874D02*
D03*
X382480D02*
D03*
X453346Y177165D02*
D03*
X460039D02*
D03*
X440748Y177253D02*
D03*
X447441D02*
D03*
X428150Y177165D02*
D03*
X434842D02*
D03*
X415945Y177165D02*
D03*
X409252D02*
D03*
X402953Y177165D02*
D03*
X396260D02*
D03*
X389961Y177165D02*
D03*
X383268D02*
D03*
X273425Y170079D02*
D03*
X266732D02*
D03*
X263189Y134645D02*
D03*
X256496D02*
D03*
X250984Y134646D02*
D03*
X244291D02*
D03*
X148622Y141732D02*
D03*
X155315D02*
D03*
X34843Y144094D02*
D03*
X28150D02*
D03*
X34843Y150394D02*
D03*
X28150D02*
D03*
X99803Y179134D02*
D03*
X93110D02*
D03*
D94*
X200000Y173425D02*
D03*
Y166732D02*
D03*
X206299Y173425D02*
D03*
Y166732D02*
D03*
X79134Y126575D02*
D03*
Y133268D02*
D03*
X495275Y144291D02*
D03*
Y150984D02*
D03*
X488976Y144291D02*
D03*
Y150984D02*
D03*
X482283Y167913D02*
D03*
Y174606D02*
D03*
X476378D02*
D03*
Y167913D02*
D03*
X470472Y174606D02*
D03*
Y167913D02*
D03*
X542520Y148228D02*
D03*
Y154921D02*
D03*
D95*
X393701Y57677D02*
D03*
Y91929D02*
D03*
X151575Y57677D02*
D03*
Y91929D02*
D03*
X523228Y57677D02*
D03*
Y91929D02*
D03*
X279527Y57677D02*
D03*
Y91929D02*
D03*
X322834Y57677D02*
D03*
Y91929D02*
D03*
X460630Y57677D02*
D03*
Y91929D02*
D03*
X218504Y57677D02*
D03*
Y91929D02*
D03*
X84645Y57677D02*
D03*
Y91929D02*
D03*
D96*
X431102Y95571D02*
D03*
Y73721D02*
D03*
X364173Y95571D02*
D03*
Y73721D02*
D03*
X250000Y95571D02*
D03*
Y73721D02*
D03*
X122047Y95571D02*
D03*
Y73721D02*
D03*
X55118Y95571D02*
D03*
Y73721D02*
D03*
D97*
X255709Y119685D02*
D03*
X263976D02*
D03*
D98*
X327953Y162205D02*
D03*
X312992D02*
D03*
X327953Y153543D02*
D03*
X312992D02*
D03*
D99*
X176279Y120453D02*
D03*
Y125453D02*
D03*
Y130453D02*
D03*
Y135453D02*
D03*
X197736Y120453D02*
D03*
Y125453D02*
D03*
Y130453D02*
D03*
Y135453D02*
D03*
X58169Y159823D02*
D03*
Y164823D02*
D03*
Y169823D02*
D03*
X79626Y164823D02*
D03*
Y169823D02*
D03*
Y159823D02*
D03*
X58169Y174823D02*
D03*
X79626D02*
D03*
D100*
X507717Y125984D02*
D03*
X488346D02*
D03*
D101*
X17028Y153543D02*
D03*
Y145866D02*
D03*
Y150984D02*
D03*
Y148425D02*
D03*
Y143307D02*
D03*
D102*
X9351Y159154D02*
D03*
Y137697D02*
D03*
D103*
X4921Y152165D02*
D03*
Y144685D02*
D03*
D104*
X17815Y135827D02*
D03*
Y161024D02*
D03*
D105*
X12598Y136665D02*
D03*
Y160187D02*
D03*
D106*
X27953Y135827D02*
D03*
X28346Y159055D02*
D03*
X27953Y125591D02*
D03*
D107*
X139764Y17717D02*
D03*
X102362D02*
D03*
X177165D02*
D03*
X486221D02*
D03*
X263779Y17717D02*
D03*
X411417Y17717D02*
D03*
X448819D02*
D03*
X309055Y17717D02*
D03*
X19685Y94488D02*
D03*
X19685Y53150D02*
D03*
D108*
X216535Y114567D02*
D03*
X49213D02*
D03*
X9843Y15748D02*
D03*
X216535Y21654D02*
D03*
X525591Y114567D02*
D03*
X543307Y187008D02*
D03*
X525591Y21654D02*
D03*
X49213D02*
D03*
X9843Y187008D02*
D03*
X368110Y114567D02*
D03*
Y21654D02*
D03*
X543307Y15748D02*
D03*
D109*
X5906Y137697D02*
D03*
Y159154D02*
D03*
D110*
X17815Y138878D02*
D03*
Y157972D02*
D03*
D111*
X378583Y143701D02*
D03*
X368583D02*
D03*
X358583D02*
D03*
X348583D02*
D03*
X81260Y191732D02*
D03*
X91260D02*
D03*
X101260D02*
D03*
X111260D02*
D03*
X121260D02*
D03*
X131260D02*
D03*
X141260D02*
D03*
X151260D02*
D03*
X161260D02*
D03*
X171260D02*
D03*
X181260D02*
D03*
X191260D02*
D03*
X201260D02*
D03*
X211260D02*
D03*
X221260D02*
D03*
X231260D02*
D03*
X241260D02*
D03*
X376142D02*
D03*
X386142D02*
D03*
X396142D02*
D03*
X406142D02*
D03*
X416142D02*
D03*
X426142D02*
D03*
X436142D02*
D03*
X446142D02*
D03*
X456142D02*
D03*
X466142D02*
D03*
X476142D02*
D03*
D112*
X338583Y143701D02*
D03*
X71260Y191732D02*
D03*
X366142D02*
D03*
D113*
X418898Y6299D02*
D03*
X448898D02*
D03*
X478898D02*
D03*
X109843D02*
D03*
X139842D02*
D03*
X169843D02*
D03*
X7087Y58976D02*
D03*
Y88976D02*
D03*
X301260Y6299D02*
D03*
X271260D02*
D03*
D114*
X121457Y141732D02*
D03*
Y137401D02*
D03*
X263779Y106299D02*
D03*
Y102362D02*
D03*
X259842Y106299D02*
D03*
Y102362D02*
D03*
X263779Y98425D02*
D03*
X259842D02*
D03*
X147559Y25512D02*
D03*
X150787Y17717D02*
D03*
X139764Y28740D02*
D03*
X147559Y9922D02*
D03*
X139764Y6693D02*
D03*
X131969Y25512D02*
D03*
X128740Y17717D02*
D03*
X131969Y9922D02*
D03*
X110157Y25512D02*
D03*
X113386Y17717D02*
D03*
X102362Y28740D02*
D03*
X110157Y9922D02*
D03*
X102362Y6693D02*
D03*
X94567Y25512D02*
D03*
X91338Y17717D02*
D03*
X94567Y9922D02*
D03*
X184960Y25512D02*
D03*
X188189Y17717D02*
D03*
X177165Y28740D02*
D03*
X184960Y9922D02*
D03*
X177165Y6693D02*
D03*
X169370Y25512D02*
D03*
X166142Y17717D02*
D03*
X169370Y9922D02*
D03*
X494015Y25512D02*
D03*
X497244Y17717D02*
D03*
X486221Y28740D02*
D03*
X494015Y9922D02*
D03*
X486221Y6693D02*
D03*
X478426Y25512D02*
D03*
X475197Y17717D02*
D03*
X478426Y9922D02*
D03*
X271574Y25511D02*
D03*
X274803Y17717D02*
D03*
X263779Y28740D02*
D03*
X271574Y9922D02*
D03*
X263779Y6693D02*
D03*
X255984Y25511D02*
D03*
X252756Y17717D02*
D03*
X255984Y9922D02*
D03*
X419212Y25512D02*
D03*
X422441Y17717D02*
D03*
X411417Y28740D02*
D03*
X419212Y9922D02*
D03*
X411417Y6693D02*
D03*
X403622Y25512D02*
D03*
X400394Y17717D02*
D03*
X403622Y9922D02*
D03*
X456614Y25512D02*
D03*
X459842Y17717D02*
D03*
X448819Y28740D02*
D03*
X456614Y9922D02*
D03*
X448819Y6693D02*
D03*
X441024Y25512D02*
D03*
X437795Y17717D02*
D03*
X441024Y9922D02*
D03*
X316850Y25511D02*
D03*
X320079Y17717D02*
D03*
X309055Y28740D02*
D03*
X316850Y9922D02*
D03*
X309055Y6693D02*
D03*
X301260Y25511D02*
D03*
X298031Y17717D02*
D03*
X301260Y9922D02*
D03*
X27480Y102283D02*
D03*
X30709Y94488D02*
D03*
X19685Y105512D02*
D03*
X27480Y86693D02*
D03*
X19685Y83464D02*
D03*
X11890Y102283D02*
D03*
X8661Y94488D02*
D03*
X11890Y86693D02*
D03*
X27480Y60944D02*
D03*
X30709Y53150D02*
D03*
X19685Y64173D02*
D03*
X27480Y45355D02*
D03*
X19685Y42126D02*
D03*
X11890Y60944D02*
D03*
X8662Y53150D02*
D03*
X11890Y45355D02*
D03*
X261811Y80709D02*
D03*
X271654D02*
D03*
Y82677D02*
D03*
X261811D02*
D03*
X269685D02*
D03*
Y80709D02*
D03*
X279527Y82677D02*
D03*
Y80709D02*
D03*
X277559D02*
D03*
Y82677D02*
D03*
X267717Y80709D02*
D03*
Y82677D02*
D03*
X265748D02*
D03*
Y80709D02*
D03*
X275590Y82677D02*
D03*
Y80709D02*
D03*
X273622D02*
D03*
Y82677D02*
D03*
X263779Y80709D02*
D03*
Y82677D02*
D03*
X355906Y74803D02*
D03*
X353937Y76771D02*
D03*
X257480Y76378D02*
D03*
Y74409D02*
D03*
Y72441D02*
D03*
Y70472D02*
D03*
X259449D02*
D03*
Y72441D02*
D03*
Y74409D02*
D03*
Y76378D02*
D03*
X261417D02*
D03*
Y74409D02*
D03*
Y72441D02*
D03*
Y70472D02*
D03*
X263386D02*
D03*
Y72441D02*
D03*
Y74409D02*
D03*
Y76378D02*
D03*
X255512D02*
D03*
Y74409D02*
D03*
Y72441D02*
D03*
Y70472D02*
D03*
X353937Y70866D02*
D03*
Y72834D02*
D03*
Y74803D02*
D03*
X357874Y76771D02*
D03*
Y74803D02*
D03*
Y72834D02*
D03*
Y70866D02*
D03*
X355906D02*
D03*
Y72834D02*
D03*
Y76771D02*
D03*
X420866Y70866D02*
D03*
Y72834D02*
D03*
Y74803D02*
D03*
Y76771D02*
D03*
X424803D02*
D03*
Y74803D02*
D03*
Y72834D02*
D03*
Y70866D02*
D03*
X422834D02*
D03*
Y72834D02*
D03*
Y74803D02*
D03*
Y76771D02*
D03*
X487795Y70866D02*
D03*
Y72834D02*
D03*
Y74803D02*
D03*
Y76771D02*
D03*
X491732D02*
D03*
Y74803D02*
D03*
Y72834D02*
D03*
Y70866D02*
D03*
X489764D02*
D03*
Y72834D02*
D03*
Y74803D02*
D03*
Y76771D02*
D03*
X180709D02*
D03*
Y74803D02*
D03*
Y72834D02*
D03*
Y70866D02*
D03*
X182677D02*
D03*
Y72834D02*
D03*
Y74803D02*
D03*
Y76771D02*
D03*
X178740D02*
D03*
Y74803D02*
D03*
Y72834D02*
D03*
Y70866D02*
D03*
X113779Y76771D02*
D03*
Y74803D02*
D03*
Y72834D02*
D03*
Y70866D02*
D03*
X115748D02*
D03*
Y72834D02*
D03*
Y74803D02*
D03*
Y76771D02*
D03*
X111811D02*
D03*
Y74803D02*
D03*
Y72834D02*
D03*
Y70866D02*
D03*
X450197Y146063D02*
D03*
X445866D02*
D03*
X454528D02*
D03*
X445866Y137401D02*
D03*
Y141732D02*
D03*
X450197Y137401D02*
D03*
Y141732D02*
D03*
X454528Y137401D02*
D03*
Y141732D02*
D03*
X458858Y137401D02*
D03*
Y141732D02*
D03*
Y146063D02*
D03*
X463189Y137401D02*
D03*
Y141732D02*
D03*
Y146063D02*
D03*
X467520Y137401D02*
D03*
Y141732D02*
D03*
Y146063D02*
D03*
X143110Y141732D02*
D03*
X121457Y146063D02*
D03*
X125787Y137401D02*
D03*
Y141732D02*
D03*
Y146063D02*
D03*
X130118Y137401D02*
D03*
Y141732D02*
D03*
Y146063D02*
D03*
X134449Y137401D02*
D03*
Y141732D02*
D03*
Y146063D02*
D03*
X138779Y137401D02*
D03*
Y141732D02*
D03*
X143110Y137401D02*
D03*
Y146063D02*
D03*
X138779D02*
D03*
X46850Y76771D02*
D03*
X44882D02*
D03*
X46850Y74803D02*
D03*
X44882D02*
D03*
Y72834D02*
D03*
Y70866D02*
D03*
X46850D02*
D03*
X48819D02*
D03*
X46850Y72834D02*
D03*
X48819D02*
D03*
Y76771D02*
D03*
Y74803D02*
D03*
D115*
X240157Y56102D02*
D03*
X236220Y56693D02*
D03*
X240157Y51181D02*
D03*
X237697Y53445D02*
D03*
X234449D02*
D03*
X232677Y56693D02*
D03*
X231102Y53445D02*
D03*
X237795Y48917D02*
D03*
X240157Y46260D02*
D03*
X235827Y45669D02*
D03*
X234547Y48917D02*
D03*
X231201D02*
D03*
X232283Y45669D02*
D03*
X229134Y56693D02*
D03*
X227953Y48917D02*
D03*
X227854Y53445D02*
D03*
X228740Y45669D02*
D03*
X106299Y56102D02*
D03*
X102362Y56693D02*
D03*
X106299Y51181D02*
D03*
X103839Y53445D02*
D03*
X100591D02*
D03*
X98819Y56693D02*
D03*
X97244Y53445D02*
D03*
X103937Y48917D02*
D03*
X106299Y46260D02*
D03*
X101969Y45669D02*
D03*
X100689Y48917D02*
D03*
X97342D02*
D03*
X98425Y45669D02*
D03*
X95276Y56693D02*
D03*
X94095Y48917D02*
D03*
X93996Y53445D02*
D03*
X94882Y45669D02*
D03*
X173228Y56102D02*
D03*
X169291Y56693D02*
D03*
X173228Y51181D02*
D03*
X170768Y53445D02*
D03*
X167520D02*
D03*
X165748Y56693D02*
D03*
X164173Y53445D02*
D03*
X170866Y48917D02*
D03*
X173228Y46260D02*
D03*
X168898Y45669D02*
D03*
X167618Y48917D02*
D03*
X164272D02*
D03*
X165354Y45669D02*
D03*
X162205Y56693D02*
D03*
X161024Y48917D02*
D03*
X160925Y53445D02*
D03*
X161811Y45669D02*
D03*
X482283Y56102D02*
D03*
X478346Y56693D02*
D03*
X482283Y51181D02*
D03*
X479823Y53445D02*
D03*
X476575D02*
D03*
X474803Y56693D02*
D03*
X473228Y53445D02*
D03*
X479921Y48917D02*
D03*
X482283Y46260D02*
D03*
X477953Y45669D02*
D03*
X476673Y48917D02*
D03*
X473327D02*
D03*
X474409Y45669D02*
D03*
X471260Y56693D02*
D03*
X470079Y48917D02*
D03*
X469980Y53445D02*
D03*
X470866Y45669D02*
D03*
X415354Y56102D02*
D03*
X411417Y56693D02*
D03*
X415354Y51181D02*
D03*
X412894Y53445D02*
D03*
X409646D02*
D03*
X407874Y56693D02*
D03*
X406299Y53445D02*
D03*
X412992Y48917D02*
D03*
X415354Y46260D02*
D03*
X411024Y45669D02*
D03*
X409744Y48917D02*
D03*
X406398D02*
D03*
X407480Y45669D02*
D03*
X404331Y56693D02*
D03*
X403150Y48917D02*
D03*
X403051Y53445D02*
D03*
X403937Y45669D02*
D03*
X347244Y56102D02*
D03*
X343307Y56693D02*
D03*
X347244Y51181D02*
D03*
X344783Y53445D02*
D03*
X341535D02*
D03*
X339764Y56693D02*
D03*
X338189Y53445D02*
D03*
X344882Y48917D02*
D03*
X347244Y46260D02*
D03*
X342913Y45669D02*
D03*
X341634Y48917D02*
D03*
X338287D02*
D03*
X339370Y45669D02*
D03*
X336220Y56693D02*
D03*
X335039Y48917D02*
D03*
X334941Y53445D02*
D03*
X335827Y45669D02*
D03*
X549213Y56102D02*
D03*
X545275Y56693D02*
D03*
X549213Y51181D02*
D03*
X546752Y53445D02*
D03*
X543504D02*
D03*
X541732Y56693D02*
D03*
X540157Y53445D02*
D03*
X546850Y48917D02*
D03*
X549213Y46260D02*
D03*
X544882Y45669D02*
D03*
X543602Y48917D02*
D03*
X540256D02*
D03*
X541338Y45669D02*
D03*
X538189Y56693D02*
D03*
X537008Y48917D02*
D03*
X536909Y53445D02*
D03*
X537795Y45669D02*
D03*
%TF.MD5,1460af04d10596eb770e5c99ca22859a*%
M02*
